<mxfile host="app.diagrams.net" agent="Mozilla/5.0 (Macintosh; Intel Mac OS X 10_15_7) AppleWebKit/605.1.15 (KHTML, like Gecko) Version/18.2 Safari/605.1.15" version="26.0.6">
  <diagram name="Page-1" id="-t-AZSYsxYaHPSQSXh5H">
    <mxGraphModel dx="4872" dy="832" grid="1" gridSize="14" guides="1" tooltips="1" connect="1" arrows="1" fold="1" page="1" pageScale="1" pageWidth="1200" pageHeight="550" math="0" shadow="0">
      <root>
        <mxCell id="0" />
        <mxCell id="1" parent="0" />
        <mxCell id="OrAucS6yeD_dxoZwGhL2-2" value="&lt;font style=&quot;font-size: 14px;&quot;&gt;Encoder&amp;nbsp;&lt;/font&gt;&lt;div&gt;&lt;font style=&quot;font-size: 14px;&quot;&gt;&lt;br&gt;&lt;/font&gt;&lt;/div&gt;&lt;div&gt;&lt;b&gt;&lt;font style=&quot;font-size: 14px;&quot;&gt;R&lt;sub&gt;x&lt;/sub&gt;(θ)&lt;/font&gt;&lt;/b&gt;&lt;/div&gt;" style="rounded=0;whiteSpace=wrap;html=1;horizontal=0;fillColor=#dae8fc;strokeColor=#6c8ebf;" parent="1" vertex="1">
          <mxGeometry x="-3281" y="147" width="80" height="240" as="geometry" />
        </mxCell>
        <mxCell id="OrAucS6yeD_dxoZwGhL2-3" value="&lt;font style=&quot;font-size: 14px;&quot;&gt;Measurement&lt;/font&gt;&lt;div&gt;&lt;font style=&quot;font-size: 14px;&quot;&gt;&lt;br&gt;&lt;/font&gt;&lt;/div&gt;&lt;div&gt;&lt;b&gt;&lt;font style=&quot;font-size: 14px;&quot;&gt;Pauli Z- Gate&lt;/font&gt;&lt;/b&gt;&lt;/div&gt;" style="rounded=0;whiteSpace=wrap;html=1;horizontal=0;fillColor=#ffe6cc;strokeColor=#d79b00;" parent="1" vertex="1">
          <mxGeometry x="-2910" y="137" width="89" height="240" as="geometry" />
        </mxCell>
        <mxCell id="OrAucS6yeD_dxoZwGhL2-4" value="&lt;font style=&quot;font-size: 14px;&quot;&gt;Variational Quantum Circuit&amp;nbsp;&lt;/font&gt;&lt;div&gt;&lt;font style=&quot;font-size: 14px;&quot;&gt;Parametarised by &amp;nbsp;θ&lt;sub&gt;i&lt;/sub&gt;.&lt;/font&gt;&lt;/div&gt;&lt;div&gt;&lt;br&gt;&lt;/div&gt;" style="rounded=0;whiteSpace=wrap;html=1;horizontal=0;fillColor=#d5e8d4;strokeColor=#82b366;" parent="1" vertex="1">
          <mxGeometry x="-3101" y="145" width="80" height="240" as="geometry" />
        </mxCell>
        <mxCell id="OrAucS6yeD_dxoZwGhL2-8" value="" style="endArrow=classic;html=1;rounded=0;shape=flexArrow;fillColor=#dae8fc;strokeColor=#6c8ebf;" parent="1" edge="1">
          <mxGeometry relative="1" as="geometry">
            <mxPoint x="-3381" y="159" as="sourcePoint" />
            <mxPoint x="-3281" y="159" as="targetPoint" />
          </mxGeometry>
        </mxCell>
        <mxCell id="OrAucS6yeD_dxoZwGhL2-10" value="" style="endArrow=classic;html=1;rounded=0;shape=flexArrow;fillColor=#dae8fc;strokeColor=#6c8ebf;" parent="1" edge="1">
          <mxGeometry relative="1" as="geometry">
            <mxPoint x="-3381" y="199" as="sourcePoint" />
            <mxPoint x="-3281" y="199" as="targetPoint" />
          </mxGeometry>
        </mxCell>
        <mxCell id="OrAucS6yeD_dxoZwGhL2-12" value="" style="endArrow=classic;html=1;rounded=0;shape=flexArrow;fillColor=#dae8fc;strokeColor=#6c8ebf;" parent="1" edge="1">
          <mxGeometry relative="1" as="geometry">
            <mxPoint x="-3381" y="179" as="sourcePoint" />
            <mxPoint x="-3281" y="179" as="targetPoint" />
          </mxGeometry>
        </mxCell>
        <mxCell id="OrAucS6yeD_dxoZwGhL2-14" value="" style="endArrow=classic;html=1;rounded=0;shape=flexArrow;fillColor=#dae8fc;strokeColor=#6c8ebf;" parent="1" edge="1">
          <mxGeometry relative="1" as="geometry">
            <mxPoint x="-3381" y="359" as="sourcePoint" />
            <mxPoint x="-3281" y="359" as="targetPoint" />
          </mxGeometry>
        </mxCell>
        <mxCell id="OrAucS6yeD_dxoZwGhL2-15" value="Classical Data" style="edgeLabel;resizable=0;html=1;;align=center;verticalAlign=middle;" parent="OrAucS6yeD_dxoZwGhL2-14" connectable="0" vertex="1">
          <mxGeometry relative="1" as="geometry">
            <mxPoint x="-20" y="73" as="offset" />
          </mxGeometry>
        </mxCell>
        <mxCell id="OrAucS6yeD_dxoZwGhL2-26" value="" style="endArrow=classic;html=1;rounded=0;shape=flexArrow;fillColor=#ffe6cc;strokeColor=#d79b00;" parent="1" edge="1">
          <mxGeometry relative="1" as="geometry">
            <mxPoint x="-3019" y="153" as="sourcePoint" />
            <mxPoint x="-2911" y="155" as="targetPoint" />
          </mxGeometry>
        </mxCell>
        <mxCell id="OrAucS6yeD_dxoZwGhL2-32" value="" style="endArrow=none;dashed=1;html=1;dashPattern=1 3;strokeWidth=2;rounded=0;" parent="1" edge="1">
          <mxGeometry width="50" height="50" relative="1" as="geometry">
            <mxPoint x="-3141" y="357" as="sourcePoint" />
            <mxPoint x="-3141" y="237" as="targetPoint" />
          </mxGeometry>
        </mxCell>
        <mxCell id="OrAucS6yeD_dxoZwGhL2-33" value="" style="endArrow=none;dashed=1;html=1;dashPattern=1 3;strokeWidth=2;rounded=0;" parent="1" edge="1">
          <mxGeometry width="50" height="50" relative="1" as="geometry">
            <mxPoint x="-3331" y="339" as="sourcePoint" />
            <mxPoint x="-3331" y="219" as="targetPoint" />
          </mxGeometry>
        </mxCell>
        <mxCell id="OrAucS6yeD_dxoZwGhL2-34" value="" style="endArrow=none;dashed=1;html=1;dashPattern=1 3;strokeWidth=2;rounded=0;" parent="1" edge="1">
          <mxGeometry width="50" height="50" relative="1" as="geometry">
            <mxPoint x="-2959" y="331" as="sourcePoint" />
            <mxPoint x="-2959" y="211" as="targetPoint" />
            <Array as="points">
              <mxPoint x="-2959" y="283" />
            </Array>
          </mxGeometry>
        </mxCell>
        <mxCell id="OrAucS6yeD_dxoZwGhL2-35" value="" style="endArrow=classic;html=1;rounded=0;shape=flexArrow;fillColor=#e1d5e7;strokeColor=#9673a6;" parent="1" edge="1">
          <mxGeometry relative="1" as="geometry">
            <mxPoint x="-2816" y="153.82" as="sourcePoint" />
            <mxPoint x="-2710" y="153.82" as="targetPoint" />
          </mxGeometry>
        </mxCell>
        <mxCell id="OrAucS6yeD_dxoZwGhL2-38" value="" style="endArrow=classic;html=1;rounded=0;shape=flexArrow;fillColor=#e1d5e7;strokeColor=#9673a6;" parent="1" edge="1">
          <mxGeometry relative="1" as="geometry">
            <mxPoint x="-2816" y="183.82" as="sourcePoint" />
            <mxPoint x="-2710" y="183.82" as="targetPoint" />
          </mxGeometry>
        </mxCell>
        <mxCell id="OrAucS6yeD_dxoZwGhL2-40" value="" style="endArrow=classic;html=1;rounded=0;shape=flexArrow;fillColor=#e1d5e7;strokeColor=#9673a6;" parent="1" edge="1">
          <mxGeometry relative="1" as="geometry">
            <mxPoint x="-2816" y="363.82" as="sourcePoint" />
            <mxPoint x="-2710" y="361.82" as="targetPoint" />
          </mxGeometry>
        </mxCell>
        <mxCell id="OrAucS6yeD_dxoZwGhL2-41" value="Classical Feature" style="edgeLabel;resizable=0;html=1;;align=center;verticalAlign=middle;" parent="OrAucS6yeD_dxoZwGhL2-40" connectable="0" vertex="1">
          <mxGeometry relative="1" as="geometry">
            <mxPoint x="-7" y="81" as="offset" />
          </mxGeometry>
        </mxCell>
        <mxCell id="OrAucS6yeD_dxoZwGhL2-42" value="&lt;font style=&quot;font-size: 14px;&quot;&gt;Final Classification Layer&lt;/font&gt;" style="rounded=0;whiteSpace=wrap;html=1;horizontal=0;fillColor=#e1d5e7;strokeColor=#9673a6;" parent="1" vertex="1">
          <mxGeometry x="-2710" y="145.82" width="30" height="240" as="geometry" />
        </mxCell>
        <mxCell id="OrAucS6yeD_dxoZwGhL2-43" value="" style="endArrow=classic;html=1;rounded=0;shape=flexArrow;fillColor=#d5e8d4;strokeColor=#82b366;" parent="1" edge="1">
          <mxGeometry relative="1" as="geometry">
            <mxPoint x="-3201" y="167" as="sourcePoint" />
            <mxPoint x="-3101" y="168" as="targetPoint" />
            <Array as="points">
              <mxPoint x="-3161" y="167" />
            </Array>
          </mxGeometry>
        </mxCell>
        <mxCell id="OrAucS6yeD_dxoZwGhL2-46" value="" style="verticalLabelPosition=bottom;verticalAlign=top;html=1;shape=mxgraph.basic.arc;startAngle=0.3172992925498727;endAngle=0.6962657520218857;direction=west;" parent="1" vertex="1">
          <mxGeometry x="-2901" y="323" width="70" height="80" as="geometry" />
        </mxCell>
        <mxCell id="OrAucS6yeD_dxoZwGhL2-47" value="" style="endArrow=classic;html=1;rounded=0;" parent="1" edge="1">
          <mxGeometry width="50" height="50" relative="1" as="geometry">
            <mxPoint x="-2871" y="353" as="sourcePoint" />
            <mxPoint x="-2831" y="313" as="targetPoint" />
          </mxGeometry>
        </mxCell>
        <mxCell id="OrAucS6yeD_dxoZwGhL2-49" value="" style="endArrow=none;html=1;rounded=0;entryX=1.021;entryY=0.792;entryDx=0;entryDy=0;entryPerimeter=0;" parent="1" edge="1">
          <mxGeometry width="50" height="50" relative="1" as="geometry">
            <mxPoint x="-2898.52" y="353.41" as="sourcePoint" />
            <mxPoint x="-2833.48" y="353.49000000000007" as="targetPoint" />
          </mxGeometry>
        </mxCell>
        <mxCell id="OrAucS6yeD_dxoZwGhL2-51" value="" style="shape=flexArrow;endArrow=classic;html=1;rounded=0;fillColor=#bac8d3;strokeColor=#23445d;" parent="1" edge="1">
          <mxGeometry x="-0.1016" width="50" height="50" relative="1" as="geometry">
            <mxPoint x="-2680" y="426" as="sourcePoint" />
            <mxPoint x="-2551" y="426" as="targetPoint" />
            <mxPoint as="offset" />
          </mxGeometry>
        </mxCell>
        <mxCell id="OrAucS6yeD_dxoZwGhL2-52" value="&lt;font style=&quot;font-size: 14px;&quot;&gt;Input&amp;nbsp;&lt;/font&gt;" style="text;html=1;align=center;verticalAlign=middle;resizable=0;points=[];autosize=1;strokeColor=none;fillColor=none;" parent="1" vertex="1">
          <mxGeometry x="-3451" y="100" width="60" height="30" as="geometry" />
        </mxCell>
        <mxCell id="OrAucS6yeD_dxoZwGhL2-53" value="&lt;font style=&quot;font-size: 14px;&quot;&gt;Encoding&lt;/font&gt;&lt;div&gt;&lt;font style=&quot;font-size: 14px;&quot;&gt;&amp;nbsp;Layer&lt;/font&gt;&lt;/div&gt;" style="text;html=1;align=center;verticalAlign=middle;resizable=0;points=[];autosize=1;strokeColor=none;fillColor=none;" parent="1" vertex="1">
          <mxGeometry x="-3291" y="87" width="80" height="50" as="geometry" />
        </mxCell>
        <mxCell id="OrAucS6yeD_dxoZwGhL2-54" value="&lt;font style=&quot;font-size: 14px;&quot;&gt;Quantum Circuit&amp;nbsp;&lt;/font&gt;" style="text;html=1;align=center;verticalAlign=middle;resizable=0;points=[];autosize=1;strokeColor=none;fillColor=none;" parent="1" vertex="1">
          <mxGeometry x="-3126" y="90" width="130" height="30" as="geometry" />
        </mxCell>
        <mxCell id="OrAucS6yeD_dxoZwGhL2-55" value="&lt;font style=&quot;font-size: 14px;&quot;&gt;Decoding&amp;nbsp;&lt;/font&gt;&lt;div&gt;&lt;font style=&quot;font-size: 14px;&quot;&gt;Layer&lt;/font&gt;&lt;/div&gt;" style="text;html=1;align=center;verticalAlign=middle;resizable=0;points=[];autosize=1;strokeColor=none;fillColor=none;" parent="1" vertex="1">
          <mxGeometry x="-2911" y="80" width="90" height="50" as="geometry" />
        </mxCell>
        <mxCell id="OrAucS6yeD_dxoZwGhL2-56" value="&lt;font style=&quot;font-size: 14px;&quot;&gt;Classification&lt;/font&gt;&lt;div&gt;&lt;font style=&quot;font-size: 14px;&quot;&gt;Dense&lt;br&gt;&lt;/font&gt;&lt;div&gt;&lt;font style=&quot;font-size: 14px;&quot;&gt;Layer&lt;/font&gt;&lt;/div&gt;&lt;/div&gt;" style="text;html=1;align=center;verticalAlign=middle;resizable=0;points=[];autosize=1;strokeColor=none;fillColor=none;" parent="1" vertex="1">
          <mxGeometry x="-2751" y="75.82" width="112" height="70" as="geometry" />
        </mxCell>
        <mxCell id="OrAucS6yeD_dxoZwGhL2-58" value="" style="endArrow=none;dashed=1;html=1;dashPattern=1 3;strokeWidth=2;rounded=0;" parent="1" edge="1">
          <mxGeometry width="50" height="50" relative="1" as="geometry">
            <mxPoint x="-2746" y="353.82" as="sourcePoint" />
            <mxPoint x="-2746" y="233.82" as="targetPoint" />
          </mxGeometry>
        </mxCell>
        <mxCell id="03YMxMFAvEcb7lE3cJCi-6" value="Quantum Feature" style="text;html=1;align=center;verticalAlign=middle;resizable=0;points=[];autosize=1;strokeColor=none;fillColor=none;" parent="1" vertex="1">
          <mxGeometry x="-3039" y="424" width="126" height="28" as="geometry" />
        </mxCell>
        <mxCell id="03YMxMFAvEcb7lE3cJCi-7" value="" style="endArrow=classic;html=1;rounded=0;shape=flexArrow;fillColor=#e1d5e7;strokeColor=#9673a6;" parent="1" edge="1">
          <mxGeometry relative="1" as="geometry">
            <mxPoint x="-2816" y="213.82" as="sourcePoint" />
            <mxPoint x="-2710" y="213.82" as="targetPoint" />
          </mxGeometry>
        </mxCell>
        <mxCell id="03YMxMFAvEcb7lE3cJCi-8" value="" style="endArrow=classic;html=1;rounded=0;shape=flexArrow;fillColor=#e1d5e7;strokeColor=#9673a6;" parent="1" edge="1">
          <mxGeometry relative="1" as="geometry">
            <mxPoint x="-2816" y="420" as="sourcePoint" />
            <mxPoint x="-2710" y="420" as="targetPoint" />
          </mxGeometry>
        </mxCell>
        <mxCell id="03YMxMFAvEcb7lE3cJCi-10" value="" style="endArrow=classic;html=1;rounded=0;shape=flexArrow;fillColor=#ffe6cc;strokeColor=#d79b00;" parent="1" edge="1">
          <mxGeometry relative="1" as="geometry">
            <mxPoint x="-3026" y="410" as="sourcePoint" />
            <mxPoint x="-2911" y="410" as="targetPoint" />
          </mxGeometry>
        </mxCell>
        <mxCell id="03YMxMFAvEcb7lE3cJCi-25" value="" style="endArrow=classic;html=1;rounded=0;shape=flexArrow;fillColor=#ffe6cc;strokeColor=#d79b00;" parent="1" edge="1">
          <mxGeometry relative="1" as="geometry">
            <mxPoint x="-3019" y="173" as="sourcePoint" />
            <mxPoint x="-2911" y="175" as="targetPoint" />
          </mxGeometry>
        </mxCell>
        <mxCell id="03YMxMFAvEcb7lE3cJCi-26" value="" style="endArrow=classic;html=1;rounded=0;shape=flexArrow;fillColor=#ffe6cc;strokeColor=#d79b00;" parent="1" edge="1">
          <mxGeometry relative="1" as="geometry">
            <mxPoint x="-3021" y="203" as="sourcePoint" />
            <mxPoint x="-2911" y="205" as="targetPoint" />
          </mxGeometry>
        </mxCell>
        <mxCell id="03YMxMFAvEcb7lE3cJCi-27" value="" style="endArrow=classic;html=1;rounded=0;shape=flexArrow;fillColor=#ffe6cc;strokeColor=#d79b00;" parent="1" edge="1">
          <mxGeometry relative="1" as="geometry">
            <mxPoint x="-3019" y="353" as="sourcePoint" />
            <mxPoint x="-2911" y="355" as="targetPoint" />
          </mxGeometry>
        </mxCell>
        <mxCell id="03YMxMFAvEcb7lE3cJCi-28" value="" style="endArrow=classic;html=1;rounded=0;shape=flexArrow;fillColor=#d5e8d4;strokeColor=#82b366;" parent="1" edge="1">
          <mxGeometry relative="1" as="geometry">
            <mxPoint x="-3202" y="197" as="sourcePoint" />
            <mxPoint x="-3101" y="198" as="targetPoint" />
            <Array as="points">
              <mxPoint x="-3162" y="197" />
            </Array>
          </mxGeometry>
        </mxCell>
        <mxCell id="03YMxMFAvEcb7lE3cJCi-29" value="" style="endArrow=classic;html=1;rounded=0;shape=flexArrow;fillColor=#d5e8d4;strokeColor=#82b366;" parent="1" edge="1">
          <mxGeometry relative="1" as="geometry">
            <mxPoint x="-3202" y="227" as="sourcePoint" />
            <mxPoint x="-3101" y="228" as="targetPoint" />
            <Array as="points">
              <mxPoint x="-3162" y="227" />
            </Array>
          </mxGeometry>
        </mxCell>
        <mxCell id="03YMxMFAvEcb7lE3cJCi-30" value="" style="endArrow=classic;html=1;rounded=0;shape=flexArrow;fillColor=#d5e8d4;strokeColor=#82b366;" parent="1" edge="1">
          <mxGeometry relative="1" as="geometry">
            <mxPoint x="-3202" y="367" as="sourcePoint" />
            <mxPoint x="-3101" y="368" as="targetPoint" />
            <Array as="points">
              <mxPoint x="-3162" y="367" />
            </Array>
          </mxGeometry>
        </mxCell>
        <mxCell id="03YMxMFAvEcb7lE3cJCi-31" value="Quantum State" style="text;html=1;align=center;verticalAlign=middle;resizable=0;points=[];autosize=1;strokeColor=none;fillColor=none;" parent="1" vertex="1">
          <mxGeometry x="-3217" y="424" width="112" height="28" as="geometry" />
        </mxCell>
        <mxCell id="03YMxMFAvEcb7lE3cJCi-32" value="&lt;font style=&quot;font-size: 14px;&quot;&gt;pixel_1&lt;/font&gt;" style="text;html=1;align=center;verticalAlign=middle;resizable=0;points=[];autosize=1;strokeColor=none;fillColor=none;" parent="1" vertex="1">
          <mxGeometry x="-3451" y="147" width="70" height="30" as="geometry" />
        </mxCell>
        <mxCell id="03YMxMFAvEcb7lE3cJCi-33" value="&lt;font style=&quot;font-size: 14px;&quot;&gt;pixel_2&lt;/font&gt;" style="text;html=1;align=center;verticalAlign=middle;resizable=0;points=[];autosize=1;strokeColor=none;fillColor=none;" parent="1" vertex="1">
          <mxGeometry x="-3451" y="169" width="70" height="30" as="geometry" />
        </mxCell>
        <mxCell id="03YMxMFAvEcb7lE3cJCi-34" value="&lt;font style=&quot;font-size: 14px;&quot;&gt;pixel_3&lt;/font&gt;" style="text;html=1;align=center;verticalAlign=middle;resizable=0;points=[];autosize=1;strokeColor=none;fillColor=none;" parent="1" vertex="1">
          <mxGeometry x="-3451" y="187" width="70" height="30" as="geometry" />
        </mxCell>
        <mxCell id="03YMxMFAvEcb7lE3cJCi-35" value="&lt;font style=&quot;font-size: 14px;&quot;&gt;pixel_16&lt;/font&gt;" style="text;html=1;align=center;verticalAlign=middle;resizable=0;points=[];autosize=1;strokeColor=none;fillColor=none;" parent="1" vertex="1">
          <mxGeometry x="-3451" y="343" width="80" height="30" as="geometry" />
        </mxCell>
        <mxCell id="dQVDDMcTo2dw6ihD1Aau-4" value="class 0" style="shape=flexArrow;endArrow=classic;html=1;rounded=0;fillColor=#bac8d3;strokeColor=#23445d;" edge="1" parent="1">
          <mxGeometry x="-0.1111" width="50" height="50" relative="1" as="geometry">
            <mxPoint x="-2680" y="155" as="sourcePoint" />
            <mxPoint x="-2550" y="155" as="targetPoint" />
            <mxPoint as="offset" />
          </mxGeometry>
        </mxCell>
        <mxCell id="dQVDDMcTo2dw6ihD1Aau-5" value="class 1" style="shape=flexArrow;endArrow=classic;html=1;rounded=0;fillColor=#bac8d3;strokeColor=#23445d;" edge="1" parent="1">
          <mxGeometry x="-0.1111" width="50" height="50" relative="1" as="geometry">
            <mxPoint x="-2678" y="183" as="sourcePoint" />
            <mxPoint x="-2548" y="183" as="targetPoint" />
            <mxPoint as="offset" />
          </mxGeometry>
        </mxCell>
        <mxCell id="dQVDDMcTo2dw6ihD1Aau-6" value="class 2" style="shape=flexArrow;endArrow=classic;html=1;rounded=0;fillColor=#bac8d3;strokeColor=#23445d;" edge="1" parent="1">
          <mxGeometry x="-0.1111" width="50" height="50" relative="1" as="geometry">
            <mxPoint x="-2680" y="215" as="sourcePoint" />
            <mxPoint x="-2550" y="215" as="targetPoint" />
            <mxPoint as="offset" />
          </mxGeometry>
        </mxCell>
        <mxCell id="dQVDDMcTo2dw6ihD1Aau-7" value="class (n-1)" style="shape=flexArrow;endArrow=classic;html=1;rounded=0;fillColor=#bac8d3;strokeColor=#23445d;" edge="1" parent="1">
          <mxGeometry x="-0.1111" width="50" height="50" relative="1" as="geometry">
            <mxPoint x="-2680" y="365" as="sourcePoint" />
            <mxPoint x="-2550" y="365" as="targetPoint" />
            <mxPoint as="offset" />
          </mxGeometry>
        </mxCell>
        <mxCell id="dQVDDMcTo2dw6ihD1Aau-9" value="&lt;span style=&quot;font-size: 11px; background-color: rgb(255, 255, 255);&quot;&gt;Outputs of&amp;nbsp;&lt;/span&gt;&lt;div style=&quot;font-size: 11px; background-color: rgb(255, 255, 255);&quot;&gt;n Classes&lt;/div&gt;" style="text;html=1;align=center;verticalAlign=middle;resizable=0;points=[];autosize=1;strokeColor=none;fillColor=none;" vertex="1" parent="1">
          <mxGeometry x="-2653" y="429" width="84" height="42" as="geometry" />
        </mxCell>
        <mxCell id="dQVDDMcTo2dw6ihD1Aau-42" value="" style="endArrow=classic;html=1;rounded=0;shape=flexArrow;fillColor=#dae8fc;strokeColor=#6c8ebf;" edge="1" parent="1">
          <mxGeometry relative="1" as="geometry">
            <mxPoint x="-3381" y="410" as="sourcePoint" />
            <mxPoint x="-3281" y="410" as="targetPoint" />
          </mxGeometry>
        </mxCell>
        <mxCell id="dQVDDMcTo2dw6ihD1Aau-45" value="" style="endArrow=classic;html=1;rounded=0;shape=flexArrow;fillColor=#d5e8d4;strokeColor=#82b366;" edge="1" parent="1">
          <mxGeometry relative="1" as="geometry">
            <mxPoint x="-3202" y="410" as="sourcePoint" />
            <mxPoint x="-3101" y="411" as="targetPoint" />
            <Array as="points">
              <mxPoint x="-3162" y="410" />
            </Array>
          </mxGeometry>
        </mxCell>
        <mxCell id="dQVDDMcTo2dw6ihD1Aau-50" value="" style="endArrow=none;html=1;rounded=0;strokeWidth=3;" edge="1" parent="1">
          <mxGeometry width="50" height="50" relative="1" as="geometry">
            <mxPoint x="-3141.17" y="46" as="sourcePoint" />
            <mxPoint x="-2982.17" y="46" as="targetPoint" />
          </mxGeometry>
        </mxCell>
        <mxCell id="dQVDDMcTo2dw6ihD1Aau-51" value="" style="endArrow=none;html=1;rounded=0;strokeWidth=3;" edge="1" parent="1">
          <mxGeometry width="50" height="50" relative="1" as="geometry">
            <mxPoint x="-3141.17" y="46" as="sourcePoint" />
            <mxPoint x="-3141.17" y="116" as="targetPoint" />
          </mxGeometry>
        </mxCell>
        <mxCell id="dQVDDMcTo2dw6ihD1Aau-55" value="" style="endArrow=none;html=1;rounded=0;strokeWidth=3;" edge="1" parent="1">
          <mxGeometry width="50" height="50" relative="1" as="geometry">
            <mxPoint x="-2982.17" y="120" as="sourcePoint" />
            <mxPoint x="-2982.17" y="46" as="targetPoint" />
          </mxGeometry>
        </mxCell>
        <mxCell id="dQVDDMcTo2dw6ihD1Aau-56" value="" style="endArrow=none;html=1;rounded=0;strokeWidth=3;" edge="1" parent="1">
          <mxGeometry width="50" height="50" relative="1" as="geometry">
            <mxPoint x="-3321.17" y="46" as="sourcePoint" />
            <mxPoint x="-3162.17" y="46" as="targetPoint" />
          </mxGeometry>
        </mxCell>
        <mxCell id="dQVDDMcTo2dw6ihD1Aau-57" value="" style="endArrow=none;html=1;rounded=0;strokeWidth=3;" edge="1" parent="1">
          <mxGeometry width="50" height="50" relative="1" as="geometry">
            <mxPoint x="-3321.17" y="46" as="sourcePoint" />
            <mxPoint x="-3321.17" y="116" as="targetPoint" />
          </mxGeometry>
        </mxCell>
        <mxCell id="dQVDDMcTo2dw6ihD1Aau-58" value="" style="endArrow=none;html=1;rounded=0;strokeWidth=3;" edge="1" parent="1">
          <mxGeometry width="50" height="50" relative="1" as="geometry">
            <mxPoint x="-3162.17" y="120" as="sourcePoint" />
            <mxPoint x="-3162.17" y="46" as="targetPoint" />
          </mxGeometry>
        </mxCell>
        <mxCell id="dQVDDMcTo2dw6ihD1Aau-62" value="" style="endArrow=none;html=1;rounded=0;strokeWidth=3;" edge="1" parent="1">
          <mxGeometry width="50" height="50" relative="1" as="geometry">
            <mxPoint x="-2954" y="46" as="sourcePoint" />
            <mxPoint x="-2795" y="46" as="targetPoint" />
          </mxGeometry>
        </mxCell>
        <mxCell id="dQVDDMcTo2dw6ihD1Aau-63" value="" style="endArrow=none;html=1;rounded=0;strokeWidth=3;" edge="1" parent="1">
          <mxGeometry width="50" height="50" relative="1" as="geometry">
            <mxPoint x="-2954" y="46" as="sourcePoint" />
            <mxPoint x="-2954" y="116" as="targetPoint" />
          </mxGeometry>
        </mxCell>
        <mxCell id="dQVDDMcTo2dw6ihD1Aau-64" value="" style="endArrow=none;html=1;rounded=0;strokeWidth=3;" edge="1" parent="1">
          <mxGeometry width="50" height="50" relative="1" as="geometry">
            <mxPoint x="-2795" y="120" as="sourcePoint" />
            <mxPoint x="-2795" y="46" as="targetPoint" />
          </mxGeometry>
        </mxCell>
        <mxCell id="dQVDDMcTo2dw6ihD1Aau-65" value="&lt;font style=&quot;font-size: 17px;&quot;&gt;&lt;b&gt;a&lt;/b&gt;&lt;/font&gt;" style="text;html=1;align=center;verticalAlign=middle;resizable=0;points=[];autosize=1;strokeColor=none;fillColor=none;" vertex="1" parent="1">
          <mxGeometry x="-3263" y="6" width="42" height="42" as="geometry" />
        </mxCell>
        <mxCell id="dQVDDMcTo2dw6ihD1Aau-66" value="&lt;font style=&quot;font-size: 18px;&quot;&gt;&lt;b&gt;b&lt;/b&gt;&lt;/font&gt;" style="text;html=1;align=center;verticalAlign=middle;resizable=0;points=[];autosize=1;strokeColor=none;fillColor=none;" vertex="1" parent="1">
          <mxGeometry x="-3095" y="6" width="42" height="42" as="geometry" />
        </mxCell>
        <mxCell id="dQVDDMcTo2dw6ihD1Aau-67" value="&lt;font style=&quot;font-size: 18px;&quot;&gt;&lt;b&gt;c&lt;/b&gt;&lt;/font&gt;" style="text;html=1;align=center;verticalAlign=middle;resizable=0;points=[];autosize=1;strokeColor=none;fillColor=none;" vertex="1" parent="1">
          <mxGeometry x="-2885" y="6" width="42" height="42" as="geometry" />
        </mxCell>
      </root>
    </mxGraphModel>
  </diagram>
</mxfile>
